<svg xmlns="http://www.w3.org/2000/svg" xmlns:xlink="http://www.w3.org/1999/xlink" width="119px" height="40" viewBox="0 0 119 40" version="1.1" src="/img/5.0/home/appstore-badge-en.svg">
    <!-- Generator: Sketch 57.1 (83088) - https://sketch.com -->
    <title>Download_on_the_App_Store_Badge_US-UK_blk_092917</title>
    <desc>Created with Sketch.</desc>
    <defs>
        <polygon id="path-1" points="0 0.0395199981 118.228026 0.0395199981 118.228026 39.5199981 0 39.5199981"></polygon>
    </defs>
    <g id="Page-1" stroke="none" stroke-width="1" fill="none" fill-rule="evenodd">
        <g id="5.0-tweaks-copy-9" transform="translate(-250.000000, -362.000000)">
            <g id="Download_on_the_App_Store_Badge_US-UK_blk_092917" transform="translate(250.000000, 362.000000)">
                <g id="Group-3">
                    <mask id="mask-2" fill="white">
                        <use xlink:href="#path-1"></use>
                    </mask>
                    <g id="Clip-2"></g>
                    <path d="M108.812387,0 L9.42057954,0 C9.05798355,0 8.70032757,0 8.33871959,0.0019759999 C8.0363916,0.00395199981 7.73603962,0.00987999951 7.43074763,0.0148199993 C6.77273967,0.0306279985 6.1078157,0.0711359965 5.45079573,0.188707991 C4.78982376,0.305291985 4.17528779,0.502891975 3.57260782,0.80818396 C2.98178385,1.11149995 2.44134788,1.50472393 1.9740239,1.9730359 C1.50077193,2.44134788 1.10952395,2.98375985 0.80917196,3.57458382 C0.501903975,4.17627579 0.307267985,4.79377576 0.191671991,5.45474773 C0.0731119964,6.1097917 0.0316159984,6.77175167 0.0148199993,7.43272363 C0.00592799971,7.73603962 0.00493999976,8.0403436 0,8.34267159 C0,8.70131557 0,9.05995955 0,9.42156754 L0,30.0994185 C0,30.4639905 0,30.8206585 0,31.1802905 C0.00493999976,31.4865704 0.00592799971,31.7839584 0.0148199993,32.0902384 C0.0316159984,32.7521984 0.0731119964,33.4141584 0.191671991,34.0682143 C0.307267985,34.7301743 0.501903975,35.3506383 0.80917196,35.9503542 C1.10952395,36.5382142 1.50077193,37.0806262 1.9740239,37.5449862 C2.44134788,38.0172501 2.98178385,38.4094861 3.57260782,38.7098381 C4.17528779,39.0180941 4.78982376,39.2137181 5.45079573,39.3332661 C6.1078157,39.4508381 6.77273967,39.4893701 7.43074763,39.5071541 C7.73603962,39.5140701 8.0363916,39.5180221 8.33871959,39.5180221 C8.70032757,39.5199981 9.05798355,39.5199981 9.42057954,39.5199981 L108.812387,39.5199981 C109.169055,39.5199981 109.528687,39.5199981 109.883379,39.5180221 C110.185707,39.5180221 110.493963,39.5140701 110.795303,39.5071541 C111.457263,39.4893701 112.121198,39.4508381 112.771302,39.3332661 C113.433262,39.2137181 114.047798,39.0180941 114.656406,38.7098381 C115.246242,38.4094861 115.786678,38.0172501 116.25499,37.5449862 C116.72429,37.0806262 117.116526,36.5382142 117.42083,35.9503542 C117.724146,35.3506383 117.921746,34.7301743 118.032402,34.0682143 C118.154914,33.4141584 118.192458,32.7521984 118.217158,32.0902384 C118.220122,31.7839584 118.220122,31.4865704 118.220122,31.1802905 C118.228026,30.8206585 118.228026,30.4639905 118.228026,30.0994185 L118.228026,9.42156754 C118.228026,9.05995955 118.228026,8.70131557 118.220122,8.34267159 C118.220122,8.0403436 118.220122,7.73603962 118.217158,7.43272363 C118.192458,6.77175167 118.154914,6.1097917 118.032402,5.45474773 C117.921746,4.79377576 117.724146,4.17627579 117.42083,3.57458382 C117.116526,2.98375985 116.72429,2.44134788 116.25499,1.9730359 C115.786678,1.50472393 115.246242,1.11149995 114.656406,0.80818396 C114.047798,0.502891975 113.433262,0.305291985 112.771302,0.188707991 C112.121198,0.0711359965 111.457263,0.0306279985 110.795303,0.0148199993 C110.493963,0.00987999951 110.185707,0.00395199981 109.883379,0.0019759999 C109.528687,0 109.169055,0 108.812387,0" id="Fill-1" fill="#A9AAA9" mask="url(#mask-2)"></path>
                </g>
                <path d="M8.34365959,38.6554981 C8.0423196,38.6554981 7.74888362,38.6515461 7.45050763,38.6446301 C6.89722766,38.6298101 6.24218369,38.5981941 5.60294772,38.4835861 C5.00026775,38.3749061 4.46477178,38.1970661 3.9668198,37.9421621 C3.45108383,37.6813301 2.98771185,37.3434342 2.58658387,36.9383542 C2.17755189,36.5362382 1.84064391,36.0758302 1.57783592,35.5581182 C1.32194393,35.0591783 1.14706794,34.5236823 1.04135195,33.9210023 C0.920815955,33.2560784 0.890187956,32.5822624 0.877343957,32.0685024 C0.870427957,31.8600344 0.862523958,31.1664585 0.862523958,31.1664585 L0.862523958,8.34267159 C0.862523958,8.34267159 0.871415957,7.65996362 0.877343957,7.45939963 C0.890187956,6.94168766 0.920815955,6.26787169 1.04036395,5.60986372 C1.14607994,5.00323175 1.32095593,4.46773578 1.57783592,3.9678078 C1.83965591,3.44910783 2.17656389,2.98573585 2.58065587,2.58658387 C2.98869985,2.17755189 3.45404783,1.83866791 3.9658318,1.57585992 C4.47366378,1.31799194 5.00817175,1.14212794 5.59899572,1.03838795 C6.26490769,0.919827955 6.93872366,0.889199956 7.45248363,0.876355957 L8.34365959,0.864499957 L109.878439,0.864499957 L110.780483,0.877343957 C111.287327,0.889199956 111.96213,0.919827955 112.617174,1.03739995 C113.21195,1.14212794 113.751398,1.31897994 114.268122,1.57882392 C114.774966,1.83866791 115.238338,2.17755189 115.64243,2.58263187 C116.048498,2.98375985 116.385406,3.45009583 116.654142,3.9697838 C116.909046,4.47465178 117.081946,5.01014775 117.18371,5.59899572 C117.29733,6.22242369 117.332898,6.86264766 117.354634,7.46335163 C117.357598,7.74295562 117.357598,8.0442956 117.357598,8.34267159 C117.36649,8.71317157 117.36649,9.06588755 117.36649,9.42156754 L117.36649,30.0994185 C117.36649,30.4580625 117.36649,30.8088025 117.357598,31.1615185 C117.357598,31.4826185 117.357598,31.7770424 117.353646,32.0803584 C117.332898,32.6622904 117.29733,33.3015264 117.184698,33.9111223 C117.081946,34.5167663 116.909046,35.0522623 116.651178,35.5610822 C116.385406,36.0748422 116.046522,36.5382142 115.648358,36.9304502 C115.239326,37.3434342 114.775954,37.6803421 114.266146,37.9401861 C113.752386,38.2010181 113.229734,38.3739181 112.617174,38.4835861 C111.984854,38.5981941 111.329811,38.6298101 110.770603,38.6446301 C110.482107,38.6515461 110.177803,38.6554981 109.883379,38.6554981 L108.812387,38.6574741 L8.34365959,38.6554981" id="Fill-4" fill="#000000"></path>
                <path d="M24.4717708,20.057387 C24.4470708,17.3393991 26.6967467,16.0164672 26.8004867,15.9542232 C25.5259667,14.0967833 23.5499668,13.8428673 22.8563909,13.8231073 C21.197539,13.6482313 19.589075,14.8160473 18.7433471,14.8160473 C17.8818111,14.8160473 16.5806152,13.8399033 15.1786433,13.8695433 C13.3745553,13.8972073 11.6850754,14.9425113 10.7593195,16.5648072 C8.84852756,19.872631 10.2742115,24.7345788 12.1039874,27.4081067 C13.0198634,28.7181946 14.0898673,30.1814225 15.4908512,30.1290585 C16.8612072,30.0727425 17.3729911,29.2546786 19.0269031,29.2546786 C20.665995,29.2546786 21.146163,30.1290585 22.5748109,30.0964545 C24.0449548,30.0727425 24.9716988,28.7804386 25.8559587,27.4584946 C26.9141067,25.9577227 27.3389467,24.4786868 27.3557427,24.4035988 C27.3211627,24.3917428 24.4994348,23.3158109 24.4717708,20.057387" id="Fill-5" fill="#FFFFFE"></path>
                <path d="M21.7725549,12.0644674 C22.5096029,11.1426635 23.0134829,9.88889151 22.8741749,8.61535958 C21.8071349,8.66278357 20.473335,9.35339554 19.704671,10.2554395 C19.0249271,11.0497915 18.4182951,12.3519754 18.5743991,13.5761073 C19.772843,13.6660153 21.003891,12.9714514 21.7725549,12.0644674" id="Fill-6" fill="#FFFFFE"></path>
                <path d="M37.6022901,25.2839068 L41.309266,25.2839068 L39.4814661,19.902271 L39.4310781,19.902271 L37.6022901,25.2839068 Z M41.7943739,26.8143187 L37.1181702,26.8143187 L35.9948142,30.1300465 L34.0138743,30.1300465 L38.4440661,17.8610631 L40.50207,17.8610631 L44.9312738,30.1300465 L42.9167419,30.1300465 L41.7943739,26.8143187 L41.7943739,26.8143187 Z" id="Fill-7" fill="#FFFFFE"></path>
                <path d="M52.6109974,25.6583587 C52.6109974,23.8473548 51.6743735,22.6568149 50.2467135,22.6568149 C48.8437536,22.6568149 47.9002136,23.8720548 47.9002136,25.6583587 C47.9002136,27.4604706 48.8437536,28.6678066 50.2467135,28.6678066 C51.6743735,28.6678066 52.6109974,27.4851706 52.6109974,25.6583587 Z M54.4980773,25.6583587 C54.4980773,28.4376026 53.0101494,30.2239065 50.7644255,30.2239065 C49.4899056,30.2239065 48.4781936,29.6538305 47.9506016,28.6589146 L47.9081176,28.6589146 L47.9081176,33.0891064 L46.0714257,33.0891064 L46.0714257,21.184695 L47.8488376,21.184695 L47.8488376,22.6726229 L47.8824296,22.6726229 C48.3932256,21.7132749 49.4820016,21.091823 50.7308335,21.091823 C53.0012574,21.091823 54.4980773,22.8860309 54.4980773,25.6583587 L54.4980773,25.6583587 Z" id="Fill-8" fill="#FFFFFE"></path>
                <path d="M62.4554289,25.6583587 C62.4554289,23.8473548 61.519793,22.6568149 60.092133,22.6568149 C58.6891731,22.6568149 57.7456332,23.8720548 57.7456332,25.6583587 C57.7456332,27.4604706 58.6891731,28.6678066 60.092133,28.6678066 C61.519793,28.6678066 62.4554289,27.4851706 62.4554289,25.6583587 Z M64.3425088,25.6583587 C64.3425088,28.4376026 62.8555689,30.2239065 60.609845,30.2239065 C59.3353251,30.2239065 58.3236131,29.6538305 57.7960212,28.6589146 L57.7535372,28.6589146 L57.7535372,33.0891064 L55.9168452,33.0891064 L55.9168452,21.184695 L57.6942572,21.184695 L57.6942572,22.6726229 L57.7278492,22.6726229 C58.2386451,21.7132749 59.3264331,21.091823 60.576253,21.091823 C62.8466769,21.091823 64.3425088,22.8860309 64.3425088,25.6583587 L64.3425088,25.6583587 Z" id="Fill-9" fill="#FFFFFE"></path>
                <path d="M70.8504645,26.7115667 C70.9858205,27.9287826 72.1684564,28.7270866 73.7828484,28.7270866 C75.3310443,28.7270866 76.4445202,27.9287826 76.4445202,26.8311147 C76.4445202,25.8786827 75.7726803,25.3086068 74.1829883,24.9183468 L72.5923084,24.5350028 C70.3396685,23.9906148 69.2933766,22.9374069 69.2933766,21.227179 C69.2933766,19.1108831 71.1389605,17.6565471 73.7581484,17.6565471 C76.3506602,17.6565471 78.1280722,19.1108831 78.1873522,21.227179 L76.3338642,21.227179 C76.2232082,20.003047 75.2105083,19.2640231 73.7324604,19.2640231 C72.2524364,19.2640231 71.2407245,20.011939 71.2407245,21.099727 C71.2407245,21.9671909 71.8868765,22.4779869 73.4686644,22.8692349 L74.8202483,23.2002149 C77.3376722,23.7959788 78.3839641,24.8067028 78.3839641,26.6018987 C78.3839641,28.8970226 76.5551762,30.3345625 73.6474924,30.3345625 C70.9265405,30.3345625 69.0888606,28.9306146 68.9703006,26.7115667 L70.8504645,26.7115667" id="Fill-10" fill="#FFFFFE"></path>
                <path d="M82.3458439,19.0683991 L82.3458439,21.184695 L84.0471799,21.184695 L84.0471799,22.6390309 L82.3458439,22.6390309 L82.3458439,27.5701386 C82.3458439,28.3368266 82.6867039,28.6934946 83.4346199,28.6934946 C83.6213519,28.6934946 83.9197279,28.6678066 84.0382879,28.6510106 L84.0382879,30.0964545 C83.8347599,30.1478305 83.4267159,30.1814225 83.0186719,30.1814225 C81.207668,30.1814225 80.501248,29.5006905 80.501248,27.7667506 L80.501248,22.6390309 L79.2010401,22.6390309 L79.2010401,21.184695 L80.501248,21.184695 L80.501248,19.0683991 L82.3458439,19.0683991" id="Fill-11" fill="#FFFFFE"></path>
                <path d="M91.6468755,25.6583587 C91.6468755,23.7278068 90.7626155,22.5876549 89.2746876,22.5876549 C87.7867597,22.5876549 86.9034877,23.7357108 86.9034877,25.6583587 C86.9034877,27.5968146 87.7867597,28.7270866 89.2746876,28.7270866 C90.7626155,28.7270866 91.6468755,27.5968146 91.6468755,25.6583587 Z M85.0322158,25.6583587 C85.0322158,22.8435469 86.6900797,21.075027 89.2746876,21.075027 C91.8681875,21.075027 93.5181474,22.8435469 93.5181474,25.6583587 C93.5181474,28.4800866 91.8770795,30.2407025 89.2746876,30.2407025 C86.6732837,30.2407025 85.0322158,28.4800866 85.0322158,25.6583587 L85.0322158,25.6583587 Z" id="Fill-12" fill="#FFFFFE"></path>
                <path d="M95.0317633,21.184695 L96.7834872,21.184695 L96.7834872,22.7072029 L96.8259712,22.7072029 C97.1065632,21.6954909 97.9226512,21.091823 98.9768471,21.091823 C99.2406431,21.091823 99.4609671,21.126403 99.6062031,21.159995 L99.6062031,22.8771389 C99.4609671,22.8178589 99.1378911,22.7664829 98.7812231,22.7664829 C97.5995752,22.7664829 96.8684552,23.5667628 96.8684552,24.8244868 L96.8684552,30.1300465 L95.0317633,30.1300465 L95.0317633,21.184695" id="Fill-13" fill="#FFFFFE"></path>
                <path d="M101.864771,24.8333788 L106.336459,24.8333788 C106.293975,23.4640108 105.418607,22.5629549 104.143099,22.5629549 C102.876483,22.5629549 101.958631,23.4817948 101.864771,24.8333788 Z M108.071387,27.5029546 C107.824387,29.1272266 106.243587,30.2407025 104.220163,30.2407025 C101.617771,30.2407025 100.002391,28.4978706 100.002391,25.7008427 C100.002391,22.8949229 101.626663,21.075027 104.143099,21.075027 C106.618039,21.075027 108.174139,22.7753749 108.174139,25.4874347 L108.174139,26.1167907 L101.855879,26.1167907 L101.855879,26.2274467 C101.855879,27.7578586 102.817203,28.7606786 104.262647,28.7606786 C105.282263,28.7606786 106.082543,28.2765586 106.328555,27.5029546 L108.071387,27.5029546 L108.071387,27.5029546 Z" id="Fill-14" fill="#FFFFFE"></path>
                <path d="M36.1588222,13.6877513 L37.2703222,13.6877513 C38.5033461,13.6877513 39.2137181,12.9200754 39.2137181,11.5675034 C39.2137181,10.2356795 38.4914901,9.45911153 37.2703222,9.45911153 L36.1588222,9.45911153 L36.1588222,13.6877513 Z M37.3720862,8.62622758 C39.1208461,8.62622758 40.14639,9.70018352 40.14639,11.5556474 C40.14639,13.4387753 39.1287501,14.5216233 37.3720862,14.5216233 L35.2429463,14.5216233 L35.2429463,8.62622758 L37.3720862,8.62622758 L37.3720862,8.62622758 Z" id="Fill-15" fill="#FFFFFE"></path>
                <path d="M44.4738298,12.2946714 C44.4738298,11.3303834 44.0400978,10.7672235 43.2803259,10.7672235 C42.5166019,10.7672235 42.0878099,11.3303834 42.0878099,12.2946714 C42.0878099,13.2668633 42.5166019,13.8270593 43.2803259,13.8270593 C44.0400978,13.8270593 44.4738298,13.2629113 44.4738298,12.2946714 Z M41.180826,12.2946714 C41.180826,10.8610835 41.9811059,9.98670351 43.2803259,9.98670351 C44.5755938,9.98670351 45.3768618,10.8610835 45.3768618,12.2946714 C45.3768618,13.7371513 44.5795458,14.6075793 43.2803259,14.6075793 C41.9771539,14.6075793 41.180826,13.7371513 41.180826,12.2946714 L41.180826,12.2946714 Z" id="Fill-16" fill="#FFFFFE"></path>
                <polyline id="Fill-17" fill="#FFFFFE" points="50.9541215 14.5216233 50.0431855 14.5216233 49.1243456 11.2444274 49.0541976 11.2444274 48.1393096 14.5216233 47.2372657 14.5216233 46.0101697 10.0726595 46.9013457 10.0726595 47.6976737 13.4674273 47.7638696 13.4674273 48.6787576 10.0726595 49.5205336 10.0726595 50.4354215 13.4674273 50.5045815 13.4674273 51.2979455 10.0726595 52.1762774 10.0726595 50.9541215 14.5216233"></polyline>
                <path d="M53.2077494,10.0726595 L54.0524893,10.0726595 L54.0524893,10.7790795 L54.1176973,10.7790795 C54.3340693,10.2850795 54.7757053,9.98670351 55.4455693,9.98670351 C56.4385092,9.98670351 56.9858612,10.5824675 56.9858612,11.6416034 L56.9858612,14.5216233 L56.1075292,14.5216233 L56.1075292,11.8619274 C56.1075292,11.1466155 55.7972973,10.7909355 55.1471933,10.7909355 C54.4980773,10.7909355 54.0850933,11.2246674 54.0850933,11.9182434 L54.0850933,14.5216233 L53.2077494,14.5216233 L53.2077494,10.0726595" id="Fill-18" fill="#FFFFFE"></path>
                <polygon id="Fill-19" fill="#FFFFFE" points="58.3848691 14.5216233 59.2632011 14.5216233 59.2632011 8.33575559 58.3848691 8.33575559"></polygon>
                <path d="M63.7763849,12.2946714 C63.7763849,11.3303834 63.3426529,10.7672235 62.5828809,10.7672235 C61.819157,10.7672235 61.390365,11.3303834 61.390365,12.2946714 C61.390365,13.2668633 61.819157,13.8270593 62.5828809,13.8270593 C63.3426529,13.8270593 63.7763849,13.2629113 63.7763849,12.2946714 Z M60.483381,12.2946714 C60.483381,10.8610835 61.283661,9.98670351 62.5828809,9.98670351 C63.8781489,9.98670351 64.6794168,10.8610835 64.6794168,12.2946714 C64.6794168,13.7371513 63.8821009,14.6075793 62.5828809,14.6075793 C61.279709,14.6075793 60.483381,13.7371513 60.483381,12.2946714 L60.483381,12.2946714 Z" id="Fill-20" fill="#FFFFFE"></path>
                <path d="M68.4634566,12.8835194 L68.4634566,12.5110434 L67.3776447,12.5802034 C66.7650847,12.6216994 66.4874567,12.8301674 66.4874567,13.2224033 C66.4874567,13.6225433 66.8342447,13.8557113 67.3114487,13.8557113 C67.9734087,13.8557113 68.4634566,13.4348233 68.4634566,12.8835194 Z M65.6041848,13.2629113 C65.6041848,12.4626314 66.1999487,12.0002474 67.2590847,11.9350394 L68.4634566,11.8658794 L68.4634566,11.4815474 C68.4634566,11.0122475 68.1532246,10.7464755 67.5535087,10.7464755 C67.0634607,10.7464755 66.7235887,10.9262915 66.6257767,11.2404754 L65.7760968,11.2404754 C65.8660048,10.4767515 66.5842807,9.98670351 67.5940167,9.98670351 C68.7094686,9.98670351 69.3378366,10.5419595 69.3378366,11.4815474 L69.3378366,14.5216233 L68.4930966,14.5216233 L68.4930966,13.8962193 L68.4229486,13.8962193 C68.1581646,14.3418073 67.6720687,14.5947353 67.0871727,14.5947353 C66.2295887,14.5947353 65.6041848,14.0760353 65.6041848,13.2629113 L65.6041848,13.2629113 Z" id="Fill-21" fill="#FFFFFE"></path>
                <path d="M71.3988045,12.2946714 C71.3988045,13.2382113 71.8434045,13.8063113 72.5873684,13.8063113 C73.3273804,13.8063113 73.7848244,13.2303073 73.7848244,12.2986234 C73.7848244,11.3718794 73.3224404,10.7869835 72.5873684,10.7869835 C71.8483445,10.7869835 71.3988045,11.3590354 71.3988045,12.2946714 Z M70.4918205,12.2946714 C70.4918205,10.8887475 71.2150365,9.99855951 72.3383924,9.99855951 C72.9479884,9.99855951 73.4617484,10.2890315 73.7028204,10.7790795 L73.7690164,10.7790795 L73.7690164,8.33575559 L74.6463603,8.33575559 L74.6463603,14.5216233 L73.8055724,14.5216233 L73.8055724,13.8181673 L73.7354244,13.8181673 C73.4706404,14.3052513 72.9509524,14.5947353 72.3383924,14.5947353 C71.2071325,14.5947353 70.4918205,13.7045473 70.4918205,12.2946714 L70.4918205,12.2946714 Z" id="Fill-22" fill="#FFFFFE"></path>
                <path d="M81.57224,12.2946714 C81.57224,11.3303834 81.138508,10.7672235 80.378736,10.7672235 C79.6150121,10.7672235 79.1862201,11.3303834 79.1862201,12.2946714 C79.1862201,13.2668633 79.6150121,13.8270593 80.378736,13.8270593 C81.138508,13.8270593 81.57224,13.2629113 81.57224,12.2946714 Z M78.2792361,12.2946714 C78.2792361,10.8610835 79.0805041,9.98670351 80.378736,9.98670351 C81.674004,9.98670351 82.4752719,10.8610835 82.4752719,12.2946714 C82.4752719,13.7371513 81.677956,14.6075793 80.378736,14.6075793 C79.0765521,14.6075793 78.2792361,13.7371513 78.2792361,12.2946714 L78.2792361,12.2946714 Z" id="Fill-23" fill="#FFFFFE"></path>
                <path d="M83.6539559,10.0726595 L84.4986958,10.0726595 L84.4986958,10.7790795 L84.5639038,10.7790795 C84.7802758,10.2850795 85.2219118,9.98670351 85.8917758,9.98670351 C86.8847157,9.98670351 87.4320677,10.5824675 87.4320677,11.6416034 L87.4320677,14.5216233 L86.5537357,14.5216233 L86.5537357,11.8619274 C86.5537357,11.1466155 86.2435038,10.7909355 85.5933998,10.7909355 C84.9442838,10.7909355 84.5312998,11.2246674 84.5312998,11.9182434 L84.5312998,14.5216233 L83.6539559,14.5216233 L83.6539559,10.0726595" id="Fill-24" fill="#FFFFFE"></path>
                <path d="M92.3928155,8.96511156 L92.3928155,10.0924195 L93.3571034,10.0924195 L93.3571034,10.8324315 L92.3928155,10.8324315 L92.3928155,13.1196514 C92.3928155,13.5859873 92.5854754,13.7905033 93.0221714,13.7905033 C93.1575274,13.7905033 93.2345914,13.7816113 93.3571034,13.7697553 L93.3571034,14.5008753 C93.2138434,14.5255753 93.0498354,14.5463233 92.8789114,14.5463233 C91.9027675,14.5463233 91.5144835,14.2024993 91.5144835,13.3449153 L91.5144835,10.8324315 L90.8080635,10.8324315 L90.8080635,10.0924195 L91.5144835,10.0924195 L91.5144835,8.96511156 L92.3928155,8.96511156" id="Fill-25" fill="#FFFFFE"></path>
                <path d="M94.5565353,8.33575559 L95.4269633,8.33575559 L95.4269633,10.7869835 L95.4961233,10.7869835 C95.7115073,10.2890315 96.1817953,9.99065551 96.8526472,9.99065551 C97.8001392,9.99065551 98.3850352,10.5913595 98.3850352,11.6495074 L98.3850352,14.5216233 L97.5057152,14.5216233 L97.5057152,11.8658794 C97.5057152,11.1555075 97.1747352,10.7948875 96.5542712,10.7948875 C95.8350073,10.7948875 95.4338793,11.2493674 95.4338793,11.9231834 L95.4338793,14.5216233 L94.5565353,14.5216233 L94.5565353,8.33575559" id="Fill-26" fill="#FFFFFE"></path>
                <path d="M100.415375,11.8866274 L102.663075,11.8866274 C102.642327,11.1881114 102.217487,10.7336315 101.567383,10.7336315 C100.918267,10.7336315 100.464775,11.1920634 100.415375,11.8866274 Z M103.503863,13.3202153 C103.304287,14.1175313 102.592927,14.6075793 101.576275,14.6075793 C100.301755,14.6075793 99.5212351,13.7331993 99.5212351,12.3104794 C99.5212351,10.8887475 100.318551,9.98670351 101.572323,9.98670351 C102.810287,9.98670351 103.557215,10.8324315 103.557215,12.2294634 L103.557215,12.5357434 L100.415375,12.5357434 L100.415375,12.5851434 C100.445015,13.3646753 100.898507,13.8596633 101.599987,13.8596633 C102.132519,13.8596633 102.496103,13.6670033 102.659123,13.3202153 L103.503863,13.3202153 L103.503863,13.3202153 Z" id="Fill-27" fill="#FFFFFE"></path>
            </g>
        </g>
    </g>
</svg>
