<svg xmlns="http://www.w3.org/2000/svg" xmlns:xlink="http://www.w3.org/1999/xlink" width="134px" height="40" viewBox="0 0 134 40" version="1.1" src="/img/5.0/home/google-play-badge-en.svg">
    <!-- Generator: Sketch 57.1 (83088) - https://sketch.com -->
    <title>google-play-badge</title>
    <desc>Created with Sketch.</desc>
    <defs>
        <linearGradient x1="61.0453132%" y1="4.94615078%" x2="26.512955%" y2="71.8787395%" id="linearGradient-1">
            <stop stop-color="#00A0FF" offset="0%"></stop>
            <stop stop-color="#00A1FF" offset="1%"></stop>
            <stop stop-color="#00BEFF" offset="26%"></stop>
            <stop stop-color="#00D2FF" offset="51%"></stop>
            <stop stop-color="#00DFFF" offset="76%"></stop>
            <stop stop-color="#00E3FF" offset="100%"></stop>
        </linearGradient>
        <linearGradient x1="107.684729%" y1="50%" x2="-130.640394%" y2="50%" id="linearGradient-2">
            <stop stop-color="#FFE000" offset="0%"></stop>
            <stop stop-color="#FFBD00" offset="41%"></stop>
            <stop stop-color="#FFA500" offset="78%"></stop>
            <stop stop-color="#FF9C00" offset="100%"></stop>
        </linearGradient>
        <linearGradient x1="86.2709832%" y1="30.8725537%" x2="-50.1798561%" y2="136.108936%" id="linearGradient-3">
            <stop stop-color="#FF3A44" offset="0%"></stop>
            <stop stop-color="#C31162" offset="100%"></stop>
        </linearGradient>
        <linearGradient x1="-18.82494%" y1="-11.9103989%" x2="42.0863309%" y2="35.0790955%" id="linearGradient-4">
            <stop stop-color="#32A071" offset="0%"></stop>
            <stop stop-color="#2DA771" offset="7%"></stop>
            <stop stop-color="#15CF74" offset="48%"></stop>
            <stop stop-color="#06E775" offset="80%"></stop>
            <stop stop-color="#00F076" offset="100%"></stop>
        </linearGradient>
    </defs>
    <g id="Page-1" stroke="none" stroke-width="1" fill="none" fill-rule="evenodd">
        <g id="5.0-tweaks-copy-9" transform="translate(-389.000000, -362.000000)" fill-rule="nonzero">
            <g id="google-play-badge" transform="translate(389.000000, 362.000000)">
                <rect id="Rectangle" fill="#000000" x="0" y="0" width="133.379993" height="39.5199981" rx="4.93999976"></rect>
                <path d="M128.439994,0.790399961 C130.731754,0.790399961 132.589593,2.64823907 132.589593,4.93999976 L132.589593,34.5799983 C132.589593,36.871759 130.731754,38.7295981 128.439994,38.7295981 L4.93999976,38.7295981 C2.64823907,38.7295981 0.790399961,36.871759 0.790399961,34.5799983 L0.790399961,4.93999976 C0.790399961,2.64823907 2.64823907,0.790399961 4.93999976,0.790399961 L128.439994,0.790399961 L128.439994,0.790399961 Z M128.439994,0 L4.93999976,0 C2.21171323,0 0,2.21171323 0,4.93999976 L0,34.5799983 C0,37.3082848 2.21171323,39.5199981 4.93999976,39.5199981 L128.439994,39.5199981 C131.16828,39.5199981 133.379993,37.3082848 133.379993,34.5799983 L133.379993,4.93999976 C133.379993,2.21171323 131.16828,0 128.439994,0 Z" id="Shape" fill="#A6A6A6"></path>
                <path d="M46.8509577,10.1171195 C46.8837343,10.8492718 46.6160676,11.5630495 46.1099577,12.0931194 C45.5422743,12.679208 44.751638,12.9954626 43.9363578,12.9625594 C43.1168898,12.9808221 42.3264445,12.6589213 41.7528779,12.0733594 C40.555491,10.8485602 40.555491,8.89167887 41.7528779,7.66687962 C42.6528577,6.7874755 43.9927908,6.53429046 45.1515978,7.02467965 C45.5078724,7.17113133 45.8256512,7.39763331 46.0803177,7.68663962 L45.5566778,8.2102796 C45.1588637,7.7310508 44.5583905,7.46742843 43.9363578,7.49891963 C42.870962,7.50628855 41.9412901,8.22333636 41.6635472,9.25191862 C41.3858042,10.2805009 41.8281928,11.3680393 42.7450742,11.9106727 C43.6619557,12.453306 44.8281811,12.3177854 45.5961978,11.5793594 C45.8979826,11.2484805 46.0729739,10.8215017 46.0901977,10.3739995 L43.9363578,10.3739995 L43.9363578,9.66263952 L46.8114377,9.66263952 C46.833934,9.81317725 46.8471324,9.96495821 46.8509577,10.1171195 L46.8509577,10.1171195 Z" id="Path" stroke="#FFFFFF" stroke-width="0.5" fill="#FFFFFF"></path>
                <polygon id="Path" stroke="#FFFFFF" stroke-width="0.5" fill="#FFFFFF" points="51.3759975 7.64711962 48.7083976 7.64711962 48.7083976 9.52431953 51.1388775 9.52431953 51.1388775 10.2356795 48.7083976 10.2356795 48.7083976 12.1128794 51.3759975 12.1128794 51.3759975 12.8439994 47.9377576 12.8439994 47.9377576 6.91599966 51.3759975 6.91599966"></polygon>
                <polygon id="Path" stroke="#FFFFFF" stroke-width="0.5" fill="#FFFFFF" points="54.6166373 12.8439994 53.8558773 12.8439994 53.8558773 7.64711962 52.1960374 7.64711962 52.1960374 6.91599966 56.3159972 6.91599966 56.3159972 7.64711962 54.6166373 7.64711962"></polygon>
                <polygon id="Path" stroke="#FFFFFF" stroke-width="0.5" fill="#FFFFFF" points="59.2207171 12.8439994 59.2207171 6.91599966 59.981477 6.91599966 59.981477 12.8439994"></polygon>
                <polygon id="Path" stroke="#FFFFFF" stroke-width="0.5" fill="#FFFFFF" points="63.3604369 12.8439994 62.5996769 12.8439994 62.5996769 7.64711962 60.939837 7.64711962 60.939837 6.91599966 65.0103968 6.91599966 65.0103968 7.64711962 63.3604369 7.64711962"></polygon>
                <path d="M72.7266764,12.0733594 C72.1503652,12.6501415 71.3684367,12.974214 70.5530765,12.974214 C69.7377163,12.974214 68.9557879,12.6501415 68.3794766,12.0733594 C67.2201117,10.8409256 67.2201117,8.91907338 68.3794766,7.68663962 C68.9441108,7.09282618 69.7339511,6.76611949 70.5530765,6.78755967 C71.3706045,6.77462729 72.157163,7.0999765 72.7266764,7.68663962 C73.3006234,8.27046053 73.6141901,9.06150372 73.5961164,9.87999951 C73.6223218,10.6999347 73.3075328,11.4940614 72.7266764,12.0733594 L72.7266764,12.0733594 Z M68.9426366,11.5793594 C69.3677731,12.0101846 69.9478069,12.2527036 70.5530765,12.2527036 C71.1583462,12.2527036 71.7383799,12.0101846 72.1635164,11.5793594 C73.0474333,10.6188653 73.0474333,9.14113371 72.1635164,8.1806396 C71.7383799,7.74981446 71.1583462,7.50729544 70.5530765,7.50729544 C69.9478069,7.50729544 69.3677731,7.74981446 68.9426366,8.1806396 C68.0587197,9.14113371 68.0587197,10.6188653 68.9426366,11.5793594 L68.9426366,11.5793594 Z" id="Shape" stroke="#FFFFFF" stroke-width="0.5" fill="#FFFFFF"></path>
                <polygon id="Path" stroke="#FFFFFF" stroke-width="0.5" fill="#FFFFFF" points="74.6730363 12.8439994 74.6730363 6.91599966 75.5918763 6.91599966 78.4768361 11.5299594 78.4768361 11.5299594 78.4768361 10.3838795 78.4768361 6.91599966 79.2375961 6.91599966 79.2375961 12.8439994 78.4471961 12.8439994 75.4337963 8.01267961 75.4337963 8.01267961 75.4337963 9.14887955 75.4337963 12.8439994"></polygon>
                <path d="M67.3223167,21.4889989 C64.997826,21.4944619 63.1178814,23.3832603 63.1233282,25.7077509 C63.1287988,28.0322416 65.0175937,29.9121897 67.3420844,29.9067472 C69.6665751,29.9012809 71.5465266,28.0124895 71.5410765,25.6879987 C71.5573518,24.5660001 71.1174533,23.4854601 70.3221366,22.6938685 C69.5268199,21.9022769 68.4442266,21.4674562 67.3223167,21.4889989 L67.3223167,21.4889989 Z M67.3223167,28.2370386 C66.2782254,28.310057 65.2956057,27.7374204 64.8444339,26.7930145 C64.3932621,25.8486087 64.5652394,24.7243854 65.2781111,23.9580484 C65.9909827,23.1917114 67.0998565,22.9390197 68.0743702,23.3208329 C69.048884,23.7026462 69.6909664,24.6413604 69.6935166,25.6879987 C69.7256688,26.3427185 69.4919969,26.9826667 69.0455273,27.4626216 C68.5990576,27.9425764 67.9776493,28.2218396 67.3223167,28.2370386 L67.3223167,28.2370386 Z M58.1141571,21.4889989 C55.7896665,21.4944619 53.9097218,23.3832603 53.9151687,25.7077509 C53.9206392,28.0322416 55.8094341,29.9121897 58.1339248,29.9067472 C60.4584155,29.9012809 62.3383671,28.0124895 62.3329169,25.6879987 C62.3491922,24.5660001 61.9092938,23.4854601 61.1139771,22.6938685 C60.3186604,21.9022769 59.236067,21.4674562 58.1141571,21.4889989 L58.1141571,21.4889989 Z M58.1141571,28.2370386 C57.0700658,28.310057 56.0874461,27.7374204 55.6362743,26.7930145 C55.1851025,25.8486087 55.3570799,24.7243854 56.0699515,23.9580484 C56.7828232,23.1917114 57.891697,22.9390197 58.8662107,23.3208329 C59.8407244,23.7026462 60.4828069,24.6413604 60.485357,25.6879987 C60.5175093,26.3427185 60.2838373,26.9826667 59.8373677,27.4626216 C59.3908981,27.9425764 58.7694897,28.2218396 58.1141571,28.2370386 L58.1141571,28.2370386 Z M47.1671177,22.7832789 L47.1671177,24.5616788 L51.4352775,24.5616788 C51.3683537,25.3993089 51.020164,26.1896996 50.4472775,26.8044387 C49.5814456,27.6865868 48.3823304,28.1604886 47.1473577,28.1085986 C44.5282026,28.1085986 42.4049579,25.9853539 42.4049579,23.3661988 C42.4049579,20.7470438 44.5282026,18.6237991 47.1473577,18.6237991 C48.3531598,18.6058666 49.5174662,19.0637798 50.3879975,19.898319 L51.6427575,18.6435591 C50.4531864,17.4670035 48.8400373,16.818895 47.1671177,16.8453992 C44.775131,16.7523089 42.5239067,17.9753468 41.3002298,20.0327434 C40.0765528,22.0901399 40.0765528,24.6521377 41.3002298,26.7095343 C42.5239067,28.7669309 44.775131,29.9899688 47.1671177,29.8968785 C48.8765539,29.9651539 50.5337745,29.3001087 51.7217975,28.0690786 C52.7593144,26.9293318 53.3121446,25.4303117 53.2630774,23.8898388 C53.2666137,23.5190677 53.2368543,23.1487277 53.1741574,22.7832789 L47.1671177,22.7832789 Z M91.9333955,24.1664788 C91.4058822,22.6145384 89.9751082,21.5493193 88.3370757,21.4889914 C87.2447069,21.4868632 86.2001751,21.9369656 85.4515026,22.73243 C84.7028302,23.5278945 84.3168006,24.5977636 84.3850758,25.6879987 C84.3677273,27.5403202 85.5717853,29.1830472 87.3434045,29.7241217 C89.1150236,30.2651961 91.031433,29.5754984 92.0519555,28.0295586 L90.6193555,27.0415587 C90.1848006,27.7658555 89.3990519,28.2057244 88.5544356,28.1975186 C87.6779167,28.2337088 86.8693152,27.7273515 86.5191557,26.9229987 L92.1408755,24.6011988 L91.9333955,24.1664788 Z M86.2029958,25.5694387 C86.1625441,24.9494803 86.373314,24.3393303 86.7877954,23.8765237 C87.2022769,23.4137171 87.7855851,23.1372059 88.4062356,23.1093189 C89.0570963,23.0695907 89.6683554,23.4238873 89.9573956,24.0083988 L86.2029958,25.5694387 Z M81.638436,29.6399985 L83.4859959,29.6399985 L83.4859959,17.2899991 L81.638436,17.2899991 L81.638436,29.6399985 Z M78.6151561,22.4275989 L78.5459961,22.4275989 C77.9874862,21.7915318 77.1793017,21.4307351 76.3328762,21.4395989 C74.0902615,21.5483497 72.3278575,23.3982887 72.3278575,25.6435387 C72.3278575,27.8887888 74.0902615,29.7387277 76.3328762,29.8474785 C77.180973,29.8644906 77.9924366,29.5022301 78.5459961,28.8594786 L78.6151561,28.8594786 L78.6151561,29.4621585 C78.6151561,31.0725985 77.7555962,31.9321584 76.3723962,31.9321584 C75.4273888,31.9113982 74.5884133,31.3221643 74.2481963,30.4402785 L72.6476364,31.1022385 C73.2534279,32.6237481 74.7348704,33.6139961 76.3723962,33.5919983 C78.5361161,33.5919983 80.324396,32.3174784 80.324396,29.2151586 L80.324396,21.7359989 L78.6151561,21.7359989 L78.6151561,22.4275989 Z M76.4909562,28.2370386 C75.1473619,28.1532683 74.1005357,27.039142 74.1005357,25.6929387 C74.1005357,24.3467355 75.1473619,23.2326092 76.4909562,23.1488389 C77.1302124,23.1764256 77.7309067,23.4622532 78.155538,23.9408947 C78.5801694,24.4195362 78.7923807,25.0500101 78.7435961,25.6879987 C78.7980693,26.3282715 78.5881417,26.9629446 78.1626228,27.4444529 C77.7371039,27.9259612 77.1330677,28.2123523 76.4909562,28.2370386 L76.4909562,28.2370386 Z M100.588275,17.2899991 L96.1620353,17.2899991 L96.1620353,29.6399985 L98.0095952,29.6399985 L98.0095952,24.9568788 L100.588275,24.9568788 C102.023527,25.0599902 103.396145,24.3527256 104.145203,23.1241122 C104.894262,21.8954987 104.894262,20.3513793 104.145203,19.1227658 C103.396145,17.8941523 102.023527,17.1868877 100.588275,17.2899991 L100.588275,17.2899991 Z M100.588275,23.2179989 L98.0095952,23.2179989 L98.0095952,19.0091191 L100.627795,19.0091191 C101.383169,19.0091191 102.081163,19.4121061 102.45885,20.066279 C102.836537,20.7204519 102.836537,21.5264261 102.45885,22.1805989 C102.081163,22.8347718 101.383169,23.2377589 100.627795,23.2377589 L100.588275,23.2179989 Z M111.989794,21.4494789 C110.614586,21.3646836 109.320912,22.1067007 108.699755,23.3365589 L110.329955,24.0182788 C110.66647,23.4115707 111.328231,23.0594057 112.019434,23.1191989 C112.493208,23.0638655 112.969351,23.2011733 113.340912,23.5002805 C113.712474,23.7993877 113.948305,24.2352188 113.995434,24.7098788 L113.995434,24.8284388 C113.401314,24.5161485 112.74003,24.3533711 112.068834,24.3541988 C110.310195,24.3541988 108.512035,25.3421988 108.512035,27.1403587 C108.547177,27.9125609 108.893905,28.6375193 109.472987,29.1495694 C110.052069,29.6616195 110.814017,29.9170022 111.584715,29.8573585 C112.528661,29.9095723 113.427444,29.4488518 113.936154,28.6519986 L113.995434,28.6519986 L113.995434,29.6399985 L115.773834,29.6399985 L115.773834,24.8877188 C115.773834,22.7239989 114.133754,21.4692389 112.029314,21.4692389 L111.989794,21.4494789 Z M111.762554,28.2172786 C111.159875,28.2172786 110.320075,27.9109986 110.320075,27.1699987 C110.320075,26.1819987 111.367355,25.8460787 112.296074,25.8460787 C112.882988,25.8315965 113.463032,25.9749015 113.975674,26.2610387 C113.84739,27.3706657 112.91887,28.2147742 111.802074,28.2370386 L111.762554,28.2172786 Z M122.255114,21.7359989 L120.140794,27.0909587 L120.081514,27.0909587 L117.888154,21.7359989 L115.912154,21.7359989 L119.202194,29.2250386 L117.324994,33.3845184 L119.251594,33.3845184 L124.310154,21.7359989 L122.255114,21.7359989 Z M105.656715,29.6399985 L107.494395,29.6399985 L107.494395,17.2899991 L105.656715,17.2899991 L105.656715,29.6399985 Z" id="Shape" fill="#FFFFFF"></path>
                <path d="M10.3147195,7.44951963 C9.98914323,7.83446367 9.82302065,8.32929688 9.85035952,8.83271957 L9.85035952,30.6872785 C9.8167418,31.1915332 9.98363429,31.6886597 10.3147195,32.0704784 L10.3838795,32.1495184 L22.6251989,19.908199 L22.6251989,19.611799 L10.3838795,7.38035964 L10.3147195,7.44951963 Z" id="Path" fill="url(#linearGradient-1)"></path>
                <path d="M26.6759987,23.9886388 L22.6251989,19.908199 L22.6251989,19.611799 L26.6759987,15.5313592 L26.7649187,15.5906392 L31.6159984,18.3372791 C32.9991984,19.1177991 32.9991984,20.402199 31.6159984,21.192599 L26.7846787,23.9392388 L26.6759987,23.9886388 Z" id="Path" fill="url(#linearGradient-2)"></path>
                <path d="M26.7945587,23.9293588 L22.6251989,19.759999 L10.3147195,32.0704784 C10.8907556,32.5832216 11.7505205,32.6122957 12.3598794,32.1396384 L26.7945587,23.9293588" id="Path" fill="url(#linearGradient-3)"></path>
                <path d="M26.7945587,15.5906392 L12.3598794,7.39023964 C11.7542004,6.91078451 10.8916104,6.93578712 10.3147195,7.44951963 L22.6251989,19.759999 L26.7945587,15.5906392 Z" id="Path" fill="url(#linearGradient-4)"></path>
                <path d="M26.6759987,23.8404388 L12.3598794,31.9914384 C11.7751358,32.4327575 10.9686231,32.4327575 10.3838795,31.9914384 L10.3838795,31.9914384 L10.3147195,32.0605984 L10.3147195,32.0605984 L10.3838795,32.1396384 L10.3838795,32.1396384 C10.9686231,32.5809575 11.7751358,32.5809575 12.3598794,32.1396384 L26.7945587,23.9293588 L26.6759987,23.8404388 Z" id="Path" fill="#000000" opacity="0.2"></path>
                <path d="M10.3147195,31.9321584 C9.99736805,31.5402781 9.84184486,31.0418969 9.87999951,30.5390785 L9.87999951,30.6872785 C9.8463818,31.1915332 10.0132743,31.6886597 10.3443595,32.0704784 L10.4135195,32.0013184 L10.3147195,31.9321584 Z" id="Path" fill="#000000" opacity="0.12"></path>
                <path d="M31.6159984,21.044399 L26.6759987,23.8404388 L26.7649187,23.9293588 L31.6159984,21.182719 C32.1993091,20.9360729 32.601094,20.3902519 32.6632784,19.759999 L32.6632784,19.759999 C32.5380081,20.330174 32.1492829,20.8069124 31.6159984,21.044399 Z" id="Path" fill="#000000" opacity="0.12"></path>
                <path d="M12.3598794,7.52855963 L31.6159984,18.4755991 C32.1492829,18.7130856 32.5380081,19.189824 32.6632784,19.759999 L32.6632784,19.759999 C32.601094,19.1297461 32.1993091,18.5839251 31.6159984,18.3372791 L12.3598794,7.39023964 C10.9865595,6.59983968 9.85035952,7.25191964 9.85035952,8.83271957 L9.85035952,8.98091956 C9.87999951,7.40011964 10.9865595,6.74803967 12.3598794,7.52855963 Z" id="Path" fill="#FFFFFF" opacity="0.25"></path>
            </g>
        </g>
    </g>
</svg>
